<?xml version="1.0" encoding="utf-8"?>
<!-- Generator: Adobe Illustrator 27.6.1, SVG Export Plug-In . SVG Version: 6.00 Build 0)  -->
<svg version="1.1" id="Слой_1" xmlns="http://www.w3.org/2000/svg" xmlns:xlink="http://www.w3.org/1999/xlink" x="0px" y="0px"
	 viewBox="0 0 270 274" style="enable-background:new 0 0 270 274;" xml:space="preserve">
<style type="text/css">
	.st0{display:none;}
	.st1{display:inline;opacity:0.974;fill-rule:evenodd;clip-rule:evenodd;fill:#FCFCFC;enable-background:new    ;}
	.st2{fill-rule:evenodd;clip-rule:evenodd;fill:#14659C;}
	.st3{fill-rule:evenodd;clip-rule:evenodd;fill:#FAFAFA;}
</style>
<g class="st0">
	<path class="st1" d="M118.5-0.5c10.3,0,20.7,0,31,0c50.7,8.2,86.8,35.5,108.5,82c6.5,16.2,10.3,32.9,11.5,50c0,3,0,6,0,9
		c-2.5,51.5-25.8,90.3-70,116.5c-16.4,8.9-33.7,14.4-52,16.5c-8.7,0-17.3,0-26,0C67.5,265.4,30,236,9,185.5
		c-5.6-15.7-8.7-31.7-9.5-48c0-0.7,0-1.3,0-2c3-52.2,26.7-92,71-119.5C85.6,7.6,101.6,2.1,118.5-0.5z"/>
</g>
<path class="st2" d="M242,97.5c-12.7-33.3-35.5-56.8-68.5-70.5C127.3,12.5,86.8,22,52,55.5C20,93,12.5,135,29.5,181.5
	c1.3,5.3,3.6,9.9,7,14c3.7,5.3,7.3,10.7,11,16c4.3,6.3,9.7,11.7,16,16c35.2,26.5,73.5,32.1,115,17c5.3-1.3,9.9-3.6,14-7
	c10.2-7,19.7-15,28.5-24C247.6,178.5,254.6,139.8,242,97.5z"/>
<g>
	<path class="st3" d="M111.5,181.5c-1.7-2.7-4.1-4.7-7-6c-11-10.9-20-23.3-27-37c-1.8-5-4.2-9.7-7-14c-10.3-22.8-5.7-42.3,14-58.5
		c8.1-6.5,15.6-6,22.5,1.5c7.5,12.4,12.2,25.7,14,40c-6,5-10.8,10.8-14.5,17.5c8,16,19,29.7,33,41c3.5,2.6,7.2,4.9,11,7
		c2,0.7,4,0.7,6,0c3.7-3.7,7.3-7.3,11-11c2.3-1.6,4.8-2.4,7.5-2.5c13.5,3.1,25.5,9.1,36,18c1.5,3.2,1.8,6.5,1,10
		c-11.7,21.9-29.5,29.7-53.5,23.5C140.2,205.2,124.5,195.3,111.5,181.5z"/>
</g>
</svg>
